<?xml version="1.0" standalone="no"?><!DOCTYPE svg PUBLIC "-//W3C//DTD SVG 1.1//EN" "http://www.w3.org/Graphics/SVG/1.1/DTD/svg11.dtd"><svg t="1752310265879" class="icon" viewBox="0 0 1024 1024" version="1.1" xmlns="http://www.w3.org/2000/svg" p-id="10300" xmlns:xlink="http://www.w3.org/1999/xlink" width="200" height="200"><path d="M481.403358 114.169918c32.120616 3.207202 95.345423 27.933435 32.238051 60.738415-26.633546 13.841183-17.728701 61.228405-21.300358 71.858336 0 0-54.530536-46.771698-148.924327-47.686884-71.429089-0.704613-114.621032-39.595988-100.338453-82.091417C257.360849 74.492939 403.333092-36.742712 396.465144 31.961065 388.143426 115.060807 450.072394 111.035606 481.403358 114.169918z" fill="#FF87CF" p-id="10301"></path><path d="M499.176603 185.971561c7.264799-17.291355 46.739302-23.956828 31.229726-39.462355-4.158834-3.041173-33.950989-19.320153-70.817615-14.485053-12.881452 5.551861 70.817615 14.485053 3.697191 51.663491-16.481456 23.30081-57.620302 1.085265-112.810906-29.047047-149.867859-13.525322-10.233081-127.980325-10.16019-128.061314-33.930741 24.317234-90.793787 71.230664-97.240588 90.405036-14.282578 42.495429 28.913413 81.386804 100.338454 82.087367 94.393791 0.927335 148.924326 47.686885 148.924326 47.686884-5.604505-14.472905-2.271768-39.126247 6.839602-60.787009z" fill="#6E6E96" opacity=".15" p-id="10302"></path><path d="M383.450058 20.436195s-1.000226 2.320362-2.441847 6.333414c-8.981786 24.981351-25.098787 105.088514 64.597587 105.088514 104.104486 0 91.113698 24.296986 91.113698 24.296987s6.074247-42.519726-105.28694-42.519726c0 0-34.42073-32.865723-34.42073-70.866209" fill="#FFFFFF" opacity=".25" p-id="10303"></path><path d="M480.395033 124.245068c22.660989 2.263669 48.37125 13.70755 50.015345 22.264138 0.664118 3.462321-4.547586 10.63803-21.44209 19.417341-24.953005 12.970541-25.39035 46.063036-25.645469 65.836734-0.056693 4.308666-0.133633 10.212833-0.595276 11.828582l16.20204-4.51114c-2.34061-2.000452-58.4464-49.185199-155.415671-50.128732-38.976415-0.384702-70.926952-12.812611-85.464648-33.246376-7.689996-10.808109-9.548716-23.074038-5.377733-35.493847 11.241406-33.444801 105.355781-105.250494 130.778527-99.779623 1.170305 0.251069 3.907765 0.842296 2.939936 10.520595-2.89944 28.978205 2.138135 51.416472 14.98719 66.687128 18.635788 22.158851 48.278111 24.301036 69.922677 25.87629 3.263895 0.230821 6.345563 0.453544 9.095172 0.72891zM406.540294 32.96939c2.49854-24.981351-12.33477-30.930063-18.830164-32.32714C346.518639-8.2221 245.840028 76.995529 233.480961 113.764968c-6.232177 18.54265-3.365133 37.603635 8.070649 53.680141 18.283482 25.702162 56.328513 41.308926 101.763877 41.75842 89.668027 0.878741 141.914646 44.803642 142.432982 45.257186l11.403385 9.783586 4.782457-14.250182c1.44972-4.308666 1.526661-10.038705 1.631947-17.963572 0.214623-16.234436 0.534534-40.754145 14.744221-48.144477 24.070214-12.512948 34.837828-26.378428 31.978883-41.203639-5.086169-26.475616-51.890263-36.992161-67.889828-38.591713a361.458162 361.458162 0 0 0-9.645904-0.773454c-19.048837-1.376829-42.758646-3.097866-55.891166-18.70463-9.184261-10.933644-12.662779-28.305989-10.32217-51.643244z" fill="#6E6E96" p-id="10304"></path><path d="M358.853409 850.498179s72.490058 52.777103 72.490058 130.175152c0 28.901265 0 0 0 0h34.26685s23.964927-111.498869 44.564721-111.276147c0 0.008099-91.636083-18.899006-151.321629-18.899005z" fill="#FFBF00" p-id="10305"></path><path d="M352.892549 858.682214l-0.008099-0.008099c0.680316 0.498088 68.335273 50.821196 68.335273 121.995167v12.845006h20.247488v-12.845006l-10.123744 10.123744h42.446835l1.721036-8.005857c11.038931-51.327383 27.564931-98.7551 36.089124-103.565903a3.454222 3.454222 0 0 1-1.53476 0.295613l2.158382-20.036914c-3.782231-0.773454-93.336872-19.117679-153.366625-19.117679h-31.104192l25.139282 18.319928z m157.403974 0.599325c-14.5134-0.16198-26.054468 18.000017-39.802512 62.690274-8.597084 27.933435-14.529598 55.417376-14.780667 56.571482l9.896973-7.997758H421.219723V993.514288h20.247488v-12.845006c0-81.605477-73.52268-136.07932-76.652941-138.359188l-5.960861 18.307779c57.948312 0 148.373595 18.510254 149.272584 18.696531l2.17053-20.032865z" fill="#6E6E96" p-id="10306"></path><path d="M543.935701 998.329141c0 27.289565-40.55167 10.362665-90.562966 10.362664-50.019395 0-90.571065 13.739946-90.571065-10.362664 0-11.52487 40.55167-20.850864 90.571065-20.850864 50.015346-0.012148 90.562966 9.325993 90.562966 20.850864z" fill="#FFBF00" p-id="10307"></path><path d="M533.811956 998.329141c0 1.830373-0.287514 3.178856-0.773454 3.6243-3.725538 3.320588-21.296308 1.356582-35.416906-0.24297-13.160867-1.465918-28.071118-3.14241-44.248861-3.14241-15.339497 0-29.626125 1.239146-42.236261 2.328461-15.185616 1.312037-34.084622 2.952084-37.838506-0.48189-0.218673-0.210574-0.372554-1.065018-0.372554-2.085491 0 1.364681-0.534534 2.300115-0.720811 2.522837 3.778181-4.470645 32.310942-13.249956 81.164082-13.249956 48.84909 0 77.377802 8.78336 81.160033 13.249956a4.389655 4.389655 0 0 1-0.716762-2.522837z m-80.439221-30.986756c-16.813514 0-100.694809 1.490215-100.69481 30.974607 0 8.791459 3.770082 14.096301 6.93274 16.995742 10.31812 9.463676 28.334335 7.89652 53.275192 5.738138 12.197087-1.060968 26.022072-2.25962 40.486878-2.259619 15.039834 0 29.358858 1.603601 41.989241 3.020925 23.624769 2.652421 40.693402 4.575932 51.169453-4.798655 4.99708-4.466596 7.528016-10.759515 7.528016-18.708679 0-29.464145-83.873196-30.962459-100.68671-30.962459z" fill="#6E6E96" p-id="10308"></path><path d="M698.573868 612.201439c-16.497654 175.930426-149.1349 307.38117-296.285547 293.588581-147.130399-13.78449-302.890278-179.753152-236.555456-343.531036 49.25404-121.606415 24.313184-176.266535 34.222305-244.638254 12.81666-88.441029 50.157078-138.298445 133.228474-131.466942 197.542596 16.242535 381.879779 250.113174 365.390224 426.047651z" fill="#FFD9DB" p-id="10309"></path><path d="M557.756636 744.109776c-15.756595 2.753658-30.521064 26.086864-30.521064 26.086864s182.612098 96.248461 352.877277-92.377141c0 0 104.614723-129.810697-39.126246-135.577182-132.511712-5.32104-97.718428 169.45528-283.229967 201.867459z" fill="#C5C5E8" p-id="10310"></path><path d="M556.019402 734.139913c-19.607668 3.429925-35.574837 27.884841-37.340418 30.650647l-5.851525 9.261202 9.698547 5.110466c1.943759 1.028572 48.626368 25.224321 117.228909 25.718359 63.151916 0.445445 157.408024-20.036914 247.873802-120.261981l0.198425-0.210574 0.178178-0.230822c2.251521-2.786054 54.745159-68.724025 34.169661-114.029805-10.674476-23.503285-37.846605-36.287549-80.763181-38.016684-68.861708-2.769856-96.742499 39.733671-126.259288 84.719541-31.100142 47.379123-66.326722 101.075462-159.13311 117.289651z m284.558201-181.773852c34.643453 1.393027 55.883068 10.192586 63.135718 26.127359 12.82071 28.200702-18.38067 76.689387-31.484844 92.988615l0.372554-0.425197c-163.097568 180.676438-338.886262 91.129896-340.631596 90.194462l3.826775 14.371667c5.167159-8.123292 15.946922-20.170548 23.70576-21.52713 101.448016-17.724651 140.877975-77.831345 172.561244-126.125654 28.557058-43.5321 51.104661-77.912335 108.514389-75.604122z" fill="#6E6E96" p-id="10311"></path><path d="M585.349913 744.628112c-12.731621 4.134537-22.219594 25.224321-22.219593 25.224321s162.668322 58.272272 281.58182-118.095501c0 0 71.42099-119.881329-48.387447-107.740935-110.450049 11.156366-61.046177 151.916905-210.97478 200.612115z" fill="#6E6E96" opacity=".15" p-id="10312"></path><path d="M214.824926 258.020224c-6.766711 17.186068-11.613959 37.146042-14.865706 59.604556-6.454899 44.548524 1.866818 83.290068-5.16311 138.509018 29.66257-91.603687 14.655132-141.602835 20.028816-198.113574zM418.486312 834.923811c-26.961556-5.960861-47.824568-13.14062-57.948312-26.819823-143.056604-193.23393 81.131686 93.774218-136.771784-84.112117-37.340418-46.585421-63.350342-90.12562-37.328269-193.258227-0.255118 0.631722-20.445914 30.87742-20.705082 31.517241-66.334821 163.781933 89.425057 329.746546 236.555456 343.531036 143.319822 13.420035 272.834906-110.940038 294.718392-279.994418-43.827713 131.547932-156.120284 220.608534-278.520401 209.136308z" fill="#EDB4B8" p-id="10313"></path><path d="M663.821079 682.861124s151.605094-123.914629 77.381851-260.609473c-74.202995-136.715091 228.881658-54.631773 106.720462 127.012495-91.684677 136.366834-191.610081 190.662499-219.170963 182.482513l35.06865-48.885535z" fill="#C5C5E8" p-id="10314"></path><path d="M331.539548 183.371783c-83.071395-6.835552-120.411813 43.025913-133.228474 131.466942-4.377507 30.197104-1.959957 57.729639-2.134085 89.518196a219.037329 219.037329 0 0 1 0.927335-7.200007c12.950294-88.242604 50.687562-172.925699 134.629599-166.106345 49.505109 4.021151 112.025304 110.753761 155.9907 134.176056 19.66841 10.47605-33.821405-114.098646 45.042563-35.238729 82.966108 76.519308 145.5106 185.240222 163.773834 282.804769 0.113386-1.12576 0.279415-2.243422 0.388752-3.377281 16.489555-175.934476-167.851679-409.805115-365.390224-426.043601zM164.088769 559.476979c-15.967169 39.42186-19.036689 78.965205-12.484601 116.495949a213.999754 213.999754 0 0 1 10.917446-34.724443c38.680802-94.288504 32.08417-148.239961 31.91814-199.619987-3.016876 32.136814-10.868852 69.744498-30.350985 117.848481z" fill="#FFF5F5" opacity=".5" p-id="10315"></path><path d="M670.227385 690.700951c1.583354-1.29179 157.19745-130.847369 79.876341-273.280351-7.309343-13.452431-17.566721-37.579338-4.179081-47.921755 15.87808-12.257829 58.422103-3.964458 89.48175 25.114985 19.251312 18.024314 58.183183 68.622788 4.134537 148.997217-88.797385 132.070317-185.969131 184.940559-207.893112 178.437066l5.345337 15.606764 35.060551-48.885536-1.826323 1.93161z m-44.354148 50.760453c36.566964 10.844555 141.930844-54.878792 230.448813-186.548209 43.524001-64.706923 40.87563-130.167053-7.09067-175.067883-36.708696-34.376186-89.692324-46.455837-115.690099-26.36628-10.836456 8.370312-25.398449 29.071344-1.235097 73.611769 69.299054 127.644216-73.449789 246.76019-74.89141 247.946693l1.384928-0.947582-1.919462 1.097413-1.283691 1.793928-35.068649 48.885536-8.289322 11.557266 13.634659 4.037349z" fill="#6E6E96" p-id="10316"></path><path d="M682.829421 618.214943s116.127445-107.202352 49.691386-213.732488c-66.436059-106.554432 181.753604-55.14201 92.158468 97.139351-67.237859 114.329468-145.125898 162.931539-167.722094 157.695538l25.87224-41.102401z" fill="#6E6E96" opacity=".15" p-id="10317"></path><path d="M177.743675 631.027553s-13.577966-53.716587 26.917011-53.716586 86.772636-98.439239 42.519726-190.326391c0 0-115.459278 139.825105-69.436737 244.042977z" fill="#EDB4B8" p-id="10318"></path><path d="M688.48657 611.257906c-15.946922 170.09915-143.915098 297.71502-285.254716 284.452914-79.524035-7.451076-163.32434-62.410858-208.528882-136.755586-37.818259-62.200284-44.775296-130.701587-19.587421-192.893772 34.384285-84.901768 33.420504-138.104069 32.57011-185.033697-0.380653-21.105982-0.745108-41.053807 2.283917-61.945166 13.160867-90.834282 50.906235-128.709234 122.379869-122.829364 89.186137 7.33364 182.130207 61.386335 255.000918 148.320952 71.044387 84.735739 108.854547 184.434372 101.136205 266.683719zM334.013791 176.06649c-82.30604-6.77076-129.434094 39.057405-144.077078 140.10452-3.263895 22.527356-2.887292 43.272932-2.490441 65.213111 0.813949 45.002068 1.741284 96.005491-31.096093 177.076434-27.645921 68.262382-20.170548 143.198337 21.053339 210.999076 49.120407 80.795578 137.022853 138.270098 223.94127 146.409589 152.455488 14.282578 290.316587-121.517326 307.30828-302.732347 8.196183-87.509645-31.343112-192.780386-105.785028-281.585871-76.320883-91.036757-174.314677-147.713527-268.854249-155.484512z" fill="#6E6E96" p-id="10319"></path><path d="M244.973436 457.640211c0 43.515902-11.889325 78.791076-36.085074 78.791077-24.199798 0-59.677447-21.595971-59.677447-65.107824 0-43.515902 47.07946-92.46623 71.283307-92.46623 24.195749-0.004049 24.479213 35.271125 24.479214 78.782977z" fill="#FF87CF" p-id="10320"></path><path d="M234.849692 457.640211c0 40.422086-10.674476 68.667332-25.96133 68.667332-17.279207 0-49.553703-16.129149-49.553703-54.984079 0-38.389238 43.414665-82.342486 61.159563-82.342486 3.288192 0 4.810803 1.081216 5.871772 2.142185 8.483698 8.483698 8.483698 39.312523 8.483698 66.517048z m-14.35547-88.906721c-31.407904 0-81.407052 56.016701-81.407051 102.589974 0 49.088011 40.535472 75.231568 69.801191 75.231568 28.504414 0 46.208818-34.072473 46.208818-88.914821 0-35.639629 0-66.42391-14.416212-80.836072-5.357485-5.357485-12.148493-8.070649-20.186746-8.070649z" fill="#6E6E96" p-id="10321"></path><path d="M684.837972 603.292544s79.734609-218.54329-79.009749-313.1922c-158.744358-94.657008 200.689055-194.643155 186.070369 65.018735-10.953891 194.954967-80.119311 311.037867-113.228005 319.400079l6.167385-71.226614z" fill="#C5C5E8" p-id="10322"></path><path d="M694.350242 606.758914c0.838246-2.296065 20.543102-57.093868 20.644339-124.562549 0.117435-90.724946-35.834005-160.169782-103.974902-200.798391-16.149397-9.629705-42.070231-28.767631-34.153463-48.751903 9.054677-22.859414 58.567885-40.843234 108.83025-29.780006 31.075845 6.835552 102.646667 35.315669 96.09458 151.673936-11.196861 199.1219-80.965657 303.926949-105.602801 310.155076l12.569641 10.690674 6.159286-71.226615-0.56693 2.599778z m-13.193263 77.576227c43.366071-10.96604 110.324515-141.303172 120.853208-328.641034 5.146912-91.506499-36.696548-156.014997-111.952412-172.585541-56.51074-12.440057-118.196738 7.228353-132.017674 42.094528-5.770534 14.566043-7.90057 43.483506 42.604765 73.60367 149.811166 89.331919 75.450241 298.91772 74.676787 301.035608l-0.453544 1.259393-0.113386 1.336335-6.159286 71.226614-1.235097 14.177292 13.796639-3.506865z" fill="#6E6E96" p-id="10323"></path><path d="M309.67631 627.565233s36.996211 161.757185 182.733582 213.189854l47.107807-27.654019-229.841389-185.535835z" fill="#EDB4B8" p-id="10324"></path><path d="M251.683453 321.909148c11.909573 26.840071 7.216205 56.397354-23.312958 68.833362-30.533212 12.452205-125.583022 3.851072-136.593606-11.711147 0 0 4.122389-40.292502 83.160485-81.467795 29.290017-15.254458 64.840557-2.49854 76.746079 24.34558z" fill="#FFBF00" p-id="10325"></path><path d="M636.025327 488.404245c90.635857 79.556431 144.498226 235.121934 87.355764 300.221659-57.150561 65.107824-255.288432 11.658504-345.932388-67.885779-90.639906-79.556431-70.752823-197.692427-9.010133-258.475387 88.02798-86.630904 176.958999-53.408825 267.586757 26.139507z" fill="#EDB4B8" p-id="10326"></path><path d="M629.347706 496.013251c90.842381 79.72651 136.07527 229.383796 86.428428 285.930982-52.145382 59.406131-242.184258 9.690448-331.637661-68.813114-46.459887-40.778442-57.296343-87.234279-58.20748-119.022836-1.320136-46.148075 17.230613-92.741596 49.622545-124.63139 72.882859-71.732802 151.15155-63.548767 253.794168 26.536358z m-267.999806-40.964718c-36.328044 35.765163-57.134363 87.975337-55.660346 139.638828 1.024523 35.813757 13.148719 88.072525 65.091626 133.66177 89.024157 78.126959 296.50422 139.529492 360.214967 66.954394 63.2815-72.105356 4.345111-233.202472-88.291198-314.508286-69.784993-61.248652-174.869458-130.551756-281.355049-25.746706z" fill="#6E6E96" p-id="10327"></path><path d="M600.138679 480.997714c72.461711 63.597361 115.515971 187.961484 69.837637 240.017777-41.227936 10.739268-86.651151-54.583179-102.213371-59.272498 15.56222 15.570319 44.653811 83.958235 16.902603 81.978031-64.472052-4.608328-145.194739-36.583162-191.233478-76.985-72.461711-63.60141-56.563384-158.043795-7.204056-206.637768 70.364072-69.258559 141.461102-42.697903 213.910665 20.899458z" fill="#FFD9DB" p-id="10328"></path><path d="M336.755301 296.356818m-38.555268 0a38.555267 38.555267 0 1 0 77.110535 0 38.555267 38.555267 0 1 0-77.110535 0Z" fill="#EDB4B8" opacity=".43" p-id="10329"></path><path d="M769.124217 244.312674c31.654923 50.695661 37.955942 218.328667-32.371685 352.549267-17.777295 33.910494 58.211529-186.236398-33.829503-317.176905-34.052226-48.444141-109.96006-43.155497-79.609075-66.484653 30.359084-23.345354 114.139141-19.571222 145.810263 31.112291z" fill="#6E6E96" opacity=".15" p-id="10330"></path><path d="M337.617844 297.219361m-17.546474 0a17.546473 17.546473 0 1 0 35.092947 0 17.546473 17.546473 0 1 0-35.092947 0Z" fill="#6E6E96" p-id="10331"></path><path d="M99.924479 373.034056s142.501823-15.606764 142.501823-47.010618-85.505143-58.300618-142.501823 47.010618z" fill="#FFF59F" opacity=".51" p-id="10332"></path><path d="M242.430351 326.015339c5.827227 13.128471 6.77076 25.989676 2.66052 36.19441-3.450172 8.556589-10.358615 14.999339-20.539052 19.150075-28.735235 11.719246-115.220357 1.793927-124.623291-8.341966l0.113386 0.149832 1.806076 6.876047c0.028346-0.174128 5.831277-36.044579 77.770603-73.51863a47.929854 47.929854 0 0 1 37.826358-2.709114c11.395286 4.000904 20.498557 12.087751 24.9854 22.199346z m-72.170147-37.429507C87.33864 331.785873 81.896115 376.135972 81.705789 378.00279l-0.388752 3.778181 2.194828 3.110015c16.108902 22.758177 118.464005 27.556832 148.681356 15.23421 15.226111-6.20788 26.180002-16.696079 31.675171-30.330738 6.179533-15.339497 5.138813-33.797108-2.931836-51.983401-6.742414-15.193715-20.15435-27.24907-36.805885-33.080347a68.20164 68.20164 0 0 0-53.870467 3.855122z" fill="#6E6E96" p-id="10333"></path><path d="M191.750888 406.478858s-28.597553 52.384302-5.312941 75.668913 53.404775-26.479665 45.755274-82.030674c0 0 30.504866 140.468975-29.277868 140.468975-39.697226 0-83.281969-97.414716-11.164465-134.107214z" fill="#6E6E96" opacity=".15" p-id="10334"></path></svg>